<svg viewBox="0 0 128 128" xmlns="http://www.w3.org/2000/svg">
  <path d="M29.62 12.85L64 9.24l34.38 3.61L125 48.29l-61 70.47L3 48.29z" fill="#fdb300"/>
  <path d="M27.71 48.29L64 118.76 3 48.29h24.71zM100.29 48.29L64 118.76l61-70.47h-24.71z" fill="#ea6c00"/>
  <path d="M27.71 48.29h72.58L64 118.76 27.71 48.29z" fill="#fdad00"/>
  <path d="M64 9.24l-34.38 3.61-1.91 35.44L64 9.24zM64 9.24l34.38 3.61 1.91 35.44L64 9.24z" fill="#fdd231"/>
  <path d="M125 48.29L98.38 12.85l1.91 35.44H125z" fill="#fdad00"/>
  <path d="M64 9.24L27.71 48.29h72.58L64 9.24z" fill="#feeeb7"/>
  <path d="M3 48.29l26.62-35.44-1.91 35.44H3z" fill="#fdad00"/>
</svg>
